<svg width="30" height="30" viewBox="0 0 30 30" fill="none" xmlns="http://www.w3.org/2000/svg">
<path d="M15 0C6.72379 0 0 6.73455 0 15.024C0 22.5491 5.5415 28.7767 12.7588 29.8626L13.5418 29.9813V18.1425H9.99822V15.7389H13.5418V12.5471C13.5418 10.5817 14.0127 9.28717 14.7923 8.47501C15.5718 7.66286 16.7236 7.25325 18.3265 7.25325C19.6082 7.25325 20.1068 7.33103 20.5811 7.38929V9.35666H18.9125C17.9657 9.35666 17.1889 9.88573 16.7858 10.5904C16.3826 11.2951 16.2571 12.1365 16.2571 12.994V15.7376H20.4319L20.0604 18.1411H16.2571V30L17.0308 29.8946C24.3507 28.9003 30 22.6226 30 15.024C30 6.73455 23.2762 0 15 0ZM15 1.36582C22.5392 1.36582 28.6364 7.47269 28.6364 15.024C28.6364 21.6686 23.888 27.1332 17.6207 28.3634V19.5069H21.2296L22.0219 14.3718H17.6207V12.994C17.6207 12.2855 17.7502 11.6506 17.9683 11.2693C18.1864 10.888 18.3967 10.7225 18.9125 10.7225H21.9447V6.15285L21.3534 6.07283C20.9445 6.0174 20.0108 5.88743 18.3265 5.88743C16.4835 5.88743 14.9015 6.39029 13.8095 7.52801C12.7174 8.66573 12.1782 10.3598 12.1782 12.5471V14.3731H8.63459V19.5083H12.1782V28.3207C6.01159 27.0124 1.36364 21.5966 1.36364 15.024C1.36364 7.47269 7.46075 1.36582 15 1.36582Z" fill="#FBC707"/>
</svg>
