<svg width="239" height="39" viewBox="0 0 239 39" fill="none" xmlns="http://www.w3.org/2000/svg">
<path d="M0.201705 30V0.90909H12.2188C14.3968 0.90909 16.2765 1.33523 17.858 2.1875C19.4489 3.0303 20.6752 4.20928 21.5369 5.72443C22.3987 7.23011 22.8295 8.98201 22.8295 10.9801C22.8295 12.9877 22.3892 14.7443 21.5085 16.25C20.6373 17.7462 19.392 18.9062 17.7727 19.7301C16.1534 20.554 14.2311 20.9659 12.0057 20.9659H4.59091V15.4261H10.6989C11.7595 15.4261 12.6449 15.2415 13.3551 14.8722C14.0748 14.5028 14.6193 13.9867 14.9886 13.3239C15.358 12.6515 15.5426 11.8703 15.5426 10.9801C15.5426 10.0805 15.358 9.30398 14.9886 8.65057C14.6193 7.98769 14.0748 7.47633 13.3551 7.11648C12.6354 6.75663 11.75 6.5767 10.6989 6.5767H7.23295V30H0.201705ZM28.8345 30.4119C27.8118 30.4119 26.9358 30.0521 26.2067 29.3324C25.487 28.6127 25.1319 27.7415 25.1413 26.7188C25.1319 25.715 25.487 24.858 26.2067 24.1477C26.9358 23.428 27.8118 23.0682 28.8345 23.0682C29.8004 23.0682 30.6527 23.428 31.3913 24.1477C32.1394 24.858 32.5182 25.715 32.5277 26.7188C32.5182 27.4006 32.3383 28.0208 31.9879 28.5795C31.647 29.1383 31.1972 29.5833 30.6385 29.9148C30.0893 30.2462 29.4879 30.4119 28.8345 30.4119ZM37.1158 30V0.90909H44.147V12.5852H55.6101V0.90909H62.6271V30H55.6101V18.3097H44.147V30H37.1158ZM75.6314 30V0.90909H87.7621C89.9401 0.90909 91.763 1.21686 93.2308 1.83239C94.7081 2.44792 95.8161 3.30966 96.5547 4.41761C97.3028 5.52557 97.6768 6.80871 97.6768 8.26705C97.6768 9.375 97.4448 10.3646 96.9808 11.2358C96.5168 12.0975 95.8776 12.8125 95.0632 13.3807C94.2488 13.9489 93.3066 14.3466 92.2365 14.5739V14.858C93.4107 14.9148 94.495 15.232 95.4893 15.8097C96.4931 16.3873 97.2981 17.1922 97.9041 18.2244C98.5102 19.2472 98.8132 20.4593 98.8132 21.8608C98.8132 23.4233 98.4155 24.8201 97.62 26.0511C96.8246 27.2727 95.674 28.2386 94.1683 28.9489C92.6626 29.6496 90.835 30 88.6854 30H75.6314ZM82.6626 24.3324H87.0092C88.5339 24.3324 89.656 24.0436 90.3757 23.4659C91.1049 22.8883 91.4695 22.0833 91.4695 21.0511C91.4695 20.303 91.2943 19.6591 90.9439 19.1193C90.5935 18.5701 90.0964 18.1487 89.4524 17.8551C88.8085 17.5521 88.0367 17.4006 87.1371 17.4006H82.6626V24.3324ZM82.6626 12.8693H86.5547C87.3217 12.8693 88.0036 12.7415 88.6001 12.4858C89.1967 12.2301 89.6607 11.8608 89.9922 11.3778C90.3331 10.8949 90.5036 10.3125 90.5036 9.63068C90.5036 8.6553 90.1579 7.88826 89.4666 7.32955C88.7753 6.77083 87.8426 6.49148 86.6683 6.49148H82.6626V12.8693ZM116.271 20.5824V8.18182H123.202V30H116.583V25.9375H116.356C115.873 27.2727 115.049 28.3333 113.884 29.1193C112.729 29.8958 111.332 30.2841 109.694 30.2841C108.207 30.2841 106.9 29.9432 105.773 29.2614C104.647 28.5795 103.771 27.6278 103.146 26.4062C102.521 25.1752 102.203 23.7358 102.194 22.0881V8.18182H109.14V20.7244C109.149 21.9081 109.462 22.8409 110.077 23.5227C110.693 24.2045 111.531 24.5455 112.592 24.5455C113.283 24.5455 113.903 24.3939 114.452 24.0909C115.011 23.7784 115.451 23.3286 115.773 22.7415C116.105 22.1449 116.271 21.4252 116.271 20.5824ZM127.624 30V8.18182H134.371V12.1591H134.598C134.996 10.7197 135.644 9.64962 136.544 8.94886C137.444 8.23864 138.49 7.88352 139.683 7.88352C140.005 7.88352 140.337 7.9072 140.678 7.95455C141.018 7.99242 141.336 8.05398 141.629 8.1392V14.1761C141.298 14.0625 140.862 13.9725 140.322 13.9062C139.792 13.84 139.319 13.8068 138.902 13.8068C138.078 13.8068 137.335 13.9915 136.672 14.3608C136.018 14.7206 135.502 15.2273 135.124 15.8807C134.754 16.5246 134.57 17.2822 134.57 18.1534V30H127.624ZM153.497 38.6364C151.423 38.6364 149.648 38.3475 148.17 37.7699C146.693 37.1922 145.533 36.4015 144.69 35.3977C143.848 34.3939 143.341 33.2576 143.17 31.9886L149.747 31.6193C149.87 32.0644 150.098 32.4527 150.429 32.7841C150.77 33.1155 151.21 33.3712 151.75 33.5511C152.299 33.7311 152.943 33.821 153.682 33.821C154.847 33.821 155.808 33.5369 156.565 32.9688C157.332 32.41 157.716 31.4299 157.716 30.0284V26.1932H157.474C157.2 26.8655 156.783 27.4669 156.224 27.9972C155.666 28.5275 154.97 28.9441 154.136 29.2472C153.313 29.5502 152.366 29.7017 151.295 29.7017C149.705 29.7017 148.246 29.3324 146.92 28.5938C145.604 27.8456 144.548 26.6903 143.753 25.1278C142.967 23.5559 142.574 21.5341 142.574 19.0625C142.574 16.5152 142.981 14.4176 143.795 12.7699C144.61 11.1127 145.675 9.88636 146.991 9.09091C148.317 8.29545 149.742 7.89773 151.267 7.89773C152.413 7.89773 153.393 8.09659 154.207 8.49432C155.031 8.88258 155.708 9.38447 156.239 10C156.769 10.6155 157.171 11.2547 157.446 11.9176H157.645V8.18182H164.562V30.0852C164.562 31.9318 164.098 33.4896 163.17 34.7585C162.242 36.0275 160.945 36.9886 159.278 37.642C157.612 38.3049 155.685 38.6364 153.497 38.6364ZM153.71 24.6449C154.553 24.6449 155.273 24.4223 155.869 23.9773C156.466 23.5322 156.925 22.893 157.247 22.0597C157.569 21.2263 157.73 20.2273 157.73 19.0625C157.73 17.8788 157.569 16.8608 157.247 16.0085C156.935 15.1468 156.475 14.4839 155.869 14.0199C155.273 13.5559 154.553 13.3239 153.71 13.3239C152.848 13.3239 152.119 13.5606 151.523 14.0341C150.926 14.5076 150.472 15.1752 150.159 16.0369C149.856 16.8892 149.705 17.8977 149.705 19.0625C149.705 20.2273 149.861 21.2263 150.173 22.0597C150.486 22.893 150.936 23.5322 151.523 23.9773C152.119 24.4223 152.848 24.6449 153.71 24.6449ZM183.067 20.5824V8.18182H189.999V30H183.38V25.9375H183.153C182.67 27.2727 181.846 28.3333 180.681 29.1193C179.526 29.8958 178.129 30.2841 176.491 30.2841C175.004 30.2841 173.697 29.9432 172.57 29.2614C171.443 28.5795 170.567 27.6278 169.942 26.4062C169.317 25.1752 169 23.7358 168.991 22.0881V8.18182H175.937V20.7244C175.946 21.9081 176.259 22.8409 176.874 23.5227C177.49 24.2045 178.328 24.5455 179.388 24.5455C180.08 24.5455 180.7 24.3939 181.249 24.0909C181.808 23.7784 182.248 23.3286 182.57 22.7415C182.902 22.1449 183.067 21.4252 183.067 20.5824ZM204.619 30.4119C202.337 30.4119 200.367 29.9621 198.71 29.0625C197.063 28.1534 195.794 26.8608 194.903 25.1847C194.023 23.4991 193.582 21.4962 193.582 19.1761C193.582 16.9223 194.027 14.9527 194.918 13.267C195.808 11.572 197.062 10.2557 198.682 9.31818C200.301 8.37121 202.209 7.89773 204.406 7.89773C205.959 7.89773 207.38 8.1392 208.668 8.62216C209.955 9.10511 211.068 9.82008 212.006 10.767C212.943 11.714 213.672 12.8835 214.193 14.2756C214.714 15.6581 214.974 17.2443 214.974 19.0341V20.767H196.011V16.733H208.511C208.502 15.9943 208.327 15.3362 207.986 14.7585C207.645 14.1809 207.176 13.7311 206.58 13.4091C205.992 13.0777 205.315 12.9119 204.548 12.9119C203.772 12.9119 203.076 13.0871 202.46 13.4375C201.845 13.7784 201.357 14.2472 200.997 14.8438C200.637 15.4309 200.448 16.0985 200.429 16.8466V20.9517C200.429 21.8419 200.604 22.6231 200.955 23.2955C201.305 23.9583 201.802 24.4744 202.446 24.8438C203.09 25.2131 203.857 25.3977 204.747 25.3977C205.363 25.3977 205.921 25.3125 206.423 25.142C206.925 24.9716 207.356 24.7206 207.716 24.3892C208.076 24.0578 208.346 23.6506 208.526 23.1676L214.903 23.3523C214.638 24.7822 214.056 26.0275 213.156 27.0881C212.266 28.1392 211.097 28.9583 209.648 29.5455C208.199 30.1231 206.523 30.4119 204.619 30.4119ZM237.57 14.8438L231.192 15.0142C231.126 14.5597 230.946 14.1572 230.653 13.8068C230.359 13.447 229.976 13.1676 229.502 12.9688C229.038 12.7604 228.498 12.6562 227.883 12.6562C227.078 12.6562 226.391 12.8172 225.823 13.1392C225.264 13.4612 224.99 13.8968 224.999 14.446C224.99 14.8722 225.16 15.2415 225.511 15.554C225.871 15.8665 226.51 16.1174 227.428 16.3068L231.633 17.1023C233.811 17.5189 235.43 18.2102 236.491 19.1761C237.561 20.142 238.101 21.4205 238.11 23.0114C238.101 24.5076 237.656 25.8097 236.775 26.9176C235.904 28.0256 234.71 28.8873 233.195 29.5028C231.68 30.1089 229.947 30.4119 227.996 30.4119C224.881 30.4119 222.424 29.7727 220.624 28.4943C218.835 27.2064 217.812 25.483 217.556 23.3239L224.417 23.1534C224.568 23.9489 224.961 24.5549 225.596 24.9716C226.23 25.3883 227.04 25.5966 228.025 25.5966C228.915 25.5966 229.639 25.4309 230.198 25.0994C230.757 24.768 231.041 24.3277 231.05 23.7784C231.041 23.286 230.823 22.893 230.397 22.5994C229.971 22.2964 229.303 22.0597 228.394 21.8892L224.587 21.1648C222.4 20.767 220.771 20.0331 219.701 18.9631C218.631 17.8835 218.101 16.5104 218.11 14.8438C218.101 13.3854 218.489 12.1402 219.275 11.108C220.061 10.0663 221.178 9.27083 222.627 8.72159C224.076 8.17235 225.785 7.89773 227.755 7.89773C230.71 7.89773 233.039 8.51799 234.744 9.75852C236.448 10.9896 237.39 12.6847 237.57 14.8438Z" fill="white"/>
</svg>
